<svg id="Layer_1" data-name="Layer 1" xmlns="http://www.w3.org/2000/svg" viewBox="0 0 48 48"><defs><style>.cls-1{fill:none;stroke:#000;stroke-linecap:round;stroke-linejoin:round;stroke-width:3.91px;}</style></defs><path class="cls-1" d="M43.55,24a134.31,134.31,0,0,1-1.78,20.52A169.71,169.71,0,0,1,24,45.5c-5.5,0-10.59-.33-13.9-.6a4.88,4.88,0,0,1-4.44-4.22A130.46,130.46,0,0,1,4.45,24,130.46,130.46,0,0,1,5.66,7.32,4.88,4.88,0,0,1,10.1,3.1c3.31-.27,8.4-.6,13.9-.6a169.71,169.71,0,0,1,17.77,1A134.31,134.31,0,0,1,43.55,24Z"/><path class="cls-1" d="M13.22,45.16c-.17-1.9-1-11.37-1-21.16s.78-19.26,1-21.16"/><line class="cls-1" x1="23.02" y1="35.73" x2="32.8" y2="35.73"/><line class="cls-1" x1="27.91" y1="13.25" x2="27.91" y2="28.89"/><path class="cls-1" d="M20.09,13.25h0a1.56,1.56,0,0,1,1.56,1.56V19.5a3.13,3.13,0,0,0,3.13,3.13H31a3.13,3.13,0,0,0,3.12-3.13V14.81a1.56,1.56,0,0,1,1.57-1.56h0"/><line class="cls-1" x1="26.35" y1="28.89" x2="29.47" y2="28.89"/></svg>