<svg id="Layer_1" data-name="Layer 1" xmlns="http://www.w3.org/2000/svg" viewBox="0 0 48 48"><defs><style>.cls-1{fill:none;stroke:#000;stroke-linecap:round;stroke-linejoin:round;stroke-width:3.91px;}</style></defs><path class="cls-1" d="M25.08,43.25a7.31,7.31,0,0,0,5.19,2.15H36.1a5.9,5.9,0,0,0,3.34-1,6,6,0,0,0,2.18-2.71,5.88,5.88,0,0,0,.31-3.37l-.73-4.62,1.9-.48a3.18,3.18,0,0,0,2.4-3.07,3.29,3.29,0,0,0-.33-1.42l-4-7.93c0-15-9.68-18.28-19.35-18.28C11.1,2.5,2.5,9,2.5,18.62S9,34.75,9,39.05a59.36,59.36,0,0,1-.47,6.45"/><line class="cls-1" x1="22.05" y1="12.27" x2="22.05" y2="31.82"/><path class="cls-1" d="M12.27,12.27h0a2,2,0,0,1,2,2v5.86A3.91,3.91,0,0,0,18.14,24H26a3.91,3.91,0,0,0,3.91-3.91V14.23a2,2,0,0,1,2-2h0"/><line class="cls-1" x1="20.09" y1="31.82" x2="24" y2="31.82"/></svg>