<svg id="Layer_1" data-name="Layer 1" xmlns="http://www.w3.org/2000/svg" viewBox="0 0 48 48"><defs><style>.cls-1{fill:none;stroke:#000;stroke-linecap:round;stroke-linejoin:round;stroke-width:3.91px;}</style></defs><circle class="cls-1" cx="38.66" cy="36.09" r="4.28"/><path class="cls-1" d="M31.82,45.5a2.16,2.16,0,0,1,.13-.57,6.83,6.83,0,0,1,6.44-4.56h.54a6.83,6.83,0,0,1,6.44,4.56,2.16,2.16,0,0,1,.13.57"/><circle class="cls-1" cx="24" cy="34.75" r="4.89"/><path class="cls-1" d="M16.18,45.5a2.48,2.48,0,0,1,.15-.65,7.78,7.78,0,0,1,7.36-5.21h.62a7.78,7.78,0,0,1,7.36,5.21,2.48,2.48,0,0,1,.15.65"/><circle class="cls-1" cx="9.34" cy="36.09" r="4.28"/><path class="cls-1" d="M2.5,45.5a2.16,2.16,0,0,1,.13-.57,6.83,6.83,0,0,1,6.44-4.56h.54a6.83,6.83,0,0,1,6.44,4.56,2.16,2.16,0,0,1,.13.57"/><line class="cls-1" x1="24" y1="2.5" x2="24" y2="22.05"/><path class="cls-1" d="M14.23,2.5h0a2,2,0,0,1,1.95,2v5.87a3.91,3.91,0,0,0,3.91,3.91h7.82a3.91,3.91,0,0,0,3.91-3.91V4.45a2,2,0,0,1,2-1.95h0"/><line class="cls-1" x1="22.05" y1="22.05" x2="25.95" y2="22.05"/></svg>